<?xml version="1.0" standalone="no"?><!DOCTYPE svg PUBLIC "-//W3C//DTD SVG 1.1//EN" "http://www.w3.org/Graphics/SVG/1.1/DTD/svg11.dtd"><svg t="1737094138249" class="icon" viewBox="0 0 1024 1024" version="1.1" xmlns="http://www.w3.org/2000/svg" p-id="1759" xmlns:xlink="http://www.w3.org/1999/xlink" width="200" height="200"><path d="M117.344 512c0 217.952 176.704 394.656 394.656 394.656S906.656 729.952 906.656 512c0-217.984-176.704-394.656-394.656-394.656S117.344 294.048 117.344 512zM512 970.656C258.688 970.656 53.344 765.312 53.344 512S258.688 53.344 512 53.344 970.656 258.688 970.656 512 765.312 970.656 512 970.656z m-105.376-609.28a32 32 0 1 0-45.248 45.248L466.752 512l-105.344 105.376a32 32 0 0 0 45.248 45.248L512 557.28l105.344 105.344a32 32 0 0 0 45.248-45.248L557.248 512l105.376-105.376a32 32 0 0 0-45.248-45.248L512 466.752l-105.376-105.376z" p-id="1760"></path></svg>