<?xml version="1.0" standalone="no"?><!DOCTYPE svg PUBLIC "-//W3C//DTD SVG 1.1//EN" "http://www.w3.org/Graphics/SVG/1.1/DTD/svg11.dtd"><svg t="1737094115290" class="icon" viewBox="0 0 1024 1024" version="1.1" xmlns="http://www.w3.org/2000/svg" p-id="1453" xmlns:xlink="http://www.w3.org/1999/xlink" width="200" height="200"><path d="M512 74.656h-2.432c-93.472 0-166.88 0-224.192 7.712-58.752 7.904-105.344 24.416-141.952 61.024s-53.12 83.232-61.024 141.952c-7.712 57.312-7.712 130.72-7.712 224.192v4.864c0 93.472 0 166.88 7.712 224.192 7.904 58.752 24.416 105.344 61.024 141.952s83.232 53.12 141.952 61.024c57.312 7.712 130.72 7.712 224.192 7.712h4.864c93.472 0 166.88 0 224.192-7.712 58.72-7.904 105.344-24.416 141.952-61.024s53.12-83.232 61.024-141.952c7.712-57.312 7.712-130.72 7.712-224.192v-4.896c0-93.472 0-166.88-7.712-224.192-7.904-58.752-24.416-105.344-61.024-141.952s-83.232-53.12-141.952-61.024c-57.312-7.712-130.72-7.712-224.192-7.712H512zM188.672 188.64c22.752-22.752 53.6-35.904 105.216-42.848 52.576-7.072 121.664-7.136 218.112-7.136s165.568 0.064 218.112 7.136c51.648 6.944 82.496 20.096 105.216 42.848s35.904 53.6 42.848 105.216c7.072 52.576 7.136 121.664 7.136 218.112s-0.064 165.568-7.136 218.112c-6.944 51.648-20.096 82.496-42.848 105.216s-53.6 35.904-105.216 42.848c-52.544 7.072-121.664 7.136-218.112 7.136s-165.568-0.064-218.112-7.136c-51.648-6.944-82.496-20.096-105.216-42.848s-35.904-53.6-42.848-105.216c-7.072-52.544-7.136-121.664-7.136-218.112s0.064-165.568 7.136-218.112c6.944-51.648 20.096-82.496 42.848-105.216zM682.688 544a32 32 0 0 0 0-64H341.344a32 32 0 0 0 0 64h341.344z" p-id="1454"></path></svg>