<?xml version="1.0" standalone="no"?><!DOCTYPE svg PUBLIC "-//W3C//DTD SVG 1.1//EN" "http://www.w3.org/Graphics/SVG/1.1/DTD/svg11.dtd"><svg t="1737094126858" class="icon" viewBox="0 0 1024 1024" version="1.1" xmlns="http://www.w3.org/2000/svg" p-id="1606" xmlns:xlink="http://www.w3.org/1999/xlink" width="200" height="200"><path d="M117.344 512c0 217.952 176.704 394.656 394.656 394.656S906.656 729.952 906.656 512 729.952 117.344 512 117.344 117.344 294.048 117.344 512zM512 970.656C258.688 970.656 53.344 765.312 53.344 512S258.688 53.344 512 53.344 970.656 258.688 970.656 512 765.312 970.656 512 970.656zM682.688 544a32 32 0 0 0 0-64H341.344a32 32 0 0 0 0 64h341.344z" p-id="1607"></path></svg>